<svg width="914" height="708" viewBox="0 0 914 708" fill="none" xmlns="http://www.w3.org/2000/svg">
<path d="M835.699 612.229H691.248C684.412 612.229 678.857 617.783 678.857 624.618V815.18H848.06V624.618C848.09 617.783 842.536 612.229 835.699 612.229Z" fill="#D0F0E4"/>
<path d="M835.699 612.229H691.248C684.412 612.229 678.857 617.783 678.857 624.618V815.18H848.06V624.618C848.09 617.783 842.536 612.229 835.699 612.229Z" stroke="#FFC9AB" stroke-width="6" stroke-miterlimit="10"/>
<path d="M867.837 398.141H659.385V815.149H867.837V398.141Z" stroke="#FFC9AB" stroke-width="6" stroke-miterlimit="10"/>
<path d="M873.3 345.931H158.43V398.141H913.495" stroke="#FFC9AB" stroke-width="6" stroke-miterlimit="10"/>
<path d="M835.699 496.153H691.523C684.686 496.153 679.131 490.599 679.131 483.764V432.866C679.131 426.031 684.686 420.477 691.523 420.477H835.699C842.535 420.477 848.09 426.031 848.09 432.866V483.794C848.09 490.63 842.535 496.153 835.699 496.153Z" stroke="#FFC9AB" stroke-width="6" stroke-miterlimit="10"/>
<path d="M835.699 588.306H691.523C684.686 588.306 679.131 582.752 679.131 575.917V525.019C679.131 518.184 684.686 512.63 691.523 512.63H835.699C842.535 512.63 848.09 518.184 848.09 525.019V575.917C848.09 582.752 842.535 588.306 835.699 588.306Z" stroke="#FFC9AB" stroke-width="6" stroke-miterlimit="10"/>
<path d="M764.099 467.591C769.578 467.591 774.018 463.151 774.018 457.674C774.018 452.197 769.578 447.757 764.099 447.757C758.621 447.757 754.18 452.197 754.18 457.674C754.18 463.151 758.621 467.591 764.099 467.591Z" stroke="#66B0F0" stroke-width="6" stroke-miterlimit="10"/>
<path d="M764.099 560.019C769.578 560.019 774.018 555.579 774.018 550.102C774.018 544.625 769.578 540.185 764.099 540.185C758.621 540.185 754.18 544.625 754.18 550.102C754.18 555.579 758.621 560.019 764.099 560.019Z" stroke="#66B0F0" stroke-width="6" stroke-miterlimit="10"/>
<path d="M826.024 675.699L825.81 677.011L825.718 677.774L822.544 698.005L822.209 700.171L820.774 709.387L820.255 712.621L818.913 721.165L818.577 723.332L815.311 744.264V744.356L814.975 746.522L814.792 747.499L811.679 767.516L811.344 769.683L809.879 779.112V779.142L809.36 782.377L808.047 790.677L807.712 792.843L804.446 813.867L804.416 813.99L804.263 814.966L804.232 815.18H718.471L718.441 814.935L718.288 814.081L718.258 813.806L714.961 792.813L714.626 790.616L713.344 782.468L712.856 779.203L711.36 769.622L711.024 767.455L707.911 747.59L707.728 746.461L707.392 744.325V744.295L704.096 723.271L703.761 721.104L702.448 712.713L701.96 709.478L700.495 700.11L700.159 697.944L697.016 677.865L696.68 675.699H826.024Z" fill="white"/>
<path d="M805.056 816.126H717.647L717.281 813.867L695.551 674.753H827.122L805.056 816.126ZM719.265 814.234H803.408L824.894 676.675H697.748L719.265 814.234Z" fill="#66B0F0"/>
<path d="M827.214 675.699C827.214 676.126 827.153 676.584 827 677.011C825.963 680.215 821.202 683.175 813.724 685.616C813.175 685.799 812.626 685.952 812.076 686.135C807.254 687.569 801.486 688.82 794.985 689.766C794.375 689.857 793.764 689.949 793.123 690.04C787.386 690.834 781.129 691.414 774.506 691.749C773.835 691.78 773.194 691.81 772.522 691.841C768.89 691.993 765.136 692.085 761.321 692.085C758.392 692.085 755.492 692.024 752.654 691.932C751.952 691.902 751.25 691.871 750.548 691.841C742.918 691.536 735.715 690.895 729.184 689.979C728.39 689.857 727.627 689.766 726.864 689.644C715.786 687.966 706.874 685.494 701.411 682.534C698.237 680.825 696.253 678.964 695.612 677.011L695.429 675.729C695.429 666.697 724.911 659.404 761.291 659.404C797.457 659.404 826.817 666.636 827.153 675.607C827.214 675.607 827.214 675.638 827.214 675.699Z" fill="#66B0F0"/>
<path d="M804.477 813.898V815.119L804.263 814.966L804.233 815.149H803.439L793.703 802.577L792.696 801.265L782.899 788.632L781.892 787.32L772.095 774.687L771.088 773.375L761.291 760.742L760.284 759.43L750.487 746.797L749.48 745.485L739.714 732.852L738.706 731.54L728.91 718.907L727.902 717.595L718.136 704.962L717.129 703.65L707.362 691.017L706.355 689.705L696.986 677.621L696.833 676.736C697.443 678.659 699.397 680.489 702.51 682.168L707.332 688.393L708.339 689.705L718.136 702.338L719.143 703.65L728.94 716.283L729.947 717.595L739.744 730.228L740.751 731.54L750.548 744.173L751.555 745.485L761.352 758.118L762.359 759.43L772.156 772.063L773.164 773.375L782.96 786.008L783.968 787.32L793.765 799.953L794.772 801.265L804.508 813.837L804.477 813.898Z" fill="#66B0F0"/>
<path d="M808.048 790.677L807.712 792.843L804.477 788.663L803.47 787.351L793.673 774.718L792.666 773.406L782.869 760.773L781.862 759.46L772.065 746.828L771.058 745.515L761.261 732.883L760.254 731.57L750.548 719.06L749.541 717.747L739.744 705.115L738.737 703.802L728.94 691.17L727.933 689.857L727.506 689.308C728.238 689.43 729.001 689.522 729.764 689.644L729.917 689.857L739.714 702.49L740.721 703.802L750.518 716.435L751.525 717.747L761.322 730.38L762.329 731.692L772.126 744.325L773.133 745.638L782.93 758.27L783.937 759.583L793.734 772.215L794.741 773.528L804.538 786.16L805.545 787.473L808.048 790.677Z" fill="#66B0F0"/>
<path d="M811.68 767.516L811.344 769.683L804.477 760.834L803.47 759.522L793.673 746.889L792.666 745.576L782.869 732.944L781.862 731.631L772.065 718.999L771.058 717.686L761.261 705.054L760.254 703.741L750.701 691.414C751.403 691.444 752.074 691.475 752.776 691.505L761.261 702.429L762.268 703.741L772.065 716.374L773.072 717.686L782.869 730.319L783.876 731.631L793.673 744.264L794.68 745.576L804.477 758.209L805.484 759.522L811.68 767.516Z" fill="#66B0F0"/>
<path d="M815.312 744.356L814.976 746.522L814.274 745.607L804.477 732.974L803.47 731.662L793.673 719.029L792.666 717.717L782.869 705.084L781.862 703.772L772.309 691.444C772.95 691.414 773.621 691.383 774.262 691.353L782.869 702.46L783.876 703.772L793.673 716.405L794.68 717.717L804.477 730.35L805.484 731.662L815.281 744.295L815.312 744.356Z" fill="#66B0F0"/>
<path d="M818.913 721.165L818.577 723.332L815.281 719.06L814.274 717.747L804.477 705.115L803.47 703.802L793.673 691.17L792.666 689.857L792.544 689.705C793.154 689.613 793.765 689.522 794.344 689.43L794.68 689.857L804.477 702.49L805.484 703.802L815.281 716.435L816.288 717.747L818.913 721.165Z" fill="#66B0F0"/>
<path d="M822.545 698.005L822.209 700.171L815.281 691.231L814.274 689.918L811.191 685.921C811.741 685.768 812.29 685.585 812.809 685.402L815.281 688.606L816.288 689.918L822.545 698.005Z" fill="#66B0F0"/>
<path d="M826.91 676.187L826.055 677.286L825.811 676.98C825.964 676.553 826.025 676.126 826.025 675.699C826.025 675.638 826.025 675.607 826.025 675.546L826.055 675.516L826.91 676.187Z" fill="#66B0F0"/>
<path d="M825.719 677.774L816.288 689.949L815.281 691.261L805.484 703.894L804.477 705.206L794.68 717.839L793.673 719.151L783.876 731.784L782.869 733.096L773.133 745.607L772.125 746.919L762.329 759.552L761.321 760.864L751.525 773.497L750.517 774.809L740.72 787.442L739.713 788.754L729.916 801.387L728.909 802.699L719.173 815.271H718.441L718.41 815.027L718.288 814.173L718.166 814.02L718.258 813.898L727.963 801.387L728.97 800.075L738.767 787.442L739.774 786.13L749.571 773.497L750.578 772.185L760.375 759.552L761.382 758.24L771.179 745.607L772.187 744.295L781.983 731.662L782.991 730.35L792.788 717.717L793.795 716.405L803.592 703.772L804.599 702.46L814.365 689.827L815.372 688.515L820.164 682.32C823.308 680.642 825.291 678.811 825.932 676.858L825.719 677.774Z" fill="#66B0F0"/>
<path d="M795.107 689.4L794.68 689.949L793.673 691.261L783.876 703.894L782.868 705.206L773.072 717.839L772.064 719.151L762.267 731.784L761.26 733.096L751.463 745.729L750.456 747.041L740.659 759.674L739.652 760.986L729.855 773.619L728.848 774.931L719.051 787.564L718.044 788.876L714.839 792.996L714.504 790.829L717.037 787.564L718.044 786.252L727.81 773.619L728.818 772.307L738.614 759.674L739.622 758.362L749.388 745.729L750.395 744.417L760.192 731.784L761.199 730.472L770.996 717.839L772.003 716.527L781.8 703.894L782.807 702.582L792.604 689.949L792.757 689.735C793.276 689.674 793.795 689.583 794.283 689.522C794.619 689.461 794.863 689.43 795.107 689.4Z" fill="#66B0F0"/>
<path d="M771.881 691.536L762.329 703.833L761.321 705.145L751.524 717.778L750.517 719.09L740.72 731.723L739.713 733.035L729.916 745.668L728.909 746.98L719.112 759.613L718.105 760.925L711.299 769.713L710.963 767.547L717.098 759.613L718.105 758.301L727.902 745.668L728.909 744.356L738.706 731.723L739.713 730.411L749.51 717.778L750.517 716.466L760.314 703.833L761.321 702.521L769.806 691.597C770.477 691.597 771.179 691.566 771.881 691.536Z" fill="#66B0F0"/>
<path d="M750.304 691.505L740.751 703.833L739.744 705.145L729.947 717.778L728.94 719.09L719.143 731.723L718.136 733.035L708.339 745.668L707.698 746.522L707.362 744.417L707.332 744.386L707.362 744.356L717.129 731.754L718.136 730.441L727.902 717.808L728.909 716.496L738.706 703.863L739.713 702.551L748.32 691.444C749.022 691.444 749.663 691.475 750.304 691.505Z" fill="#66B0F0"/>
<path d="M730.099 689.766L729.977 689.949L728.97 691.261L719.173 703.894L718.166 705.206L708.369 717.839L707.362 719.151L704.096 723.362L703.76 721.196L706.354 717.839L707.362 716.527L717.128 703.894L718.135 702.582L727.932 689.949L728.268 689.522C728.756 689.583 729.275 689.674 729.794 689.735L730.099 689.766Z" fill="#66B0F0"/>
<path d="M711.482 685.921L708.369 689.918L707.362 691.231L700.464 700.11L700.129 697.944L706.355 689.918L707.362 688.606L709.865 685.402C710.383 685.585 710.933 685.768 711.482 685.921Z" fill="#66B0F0"/>
<path d="M832.311 657.787H804.141V649.212H821.232C826.573 649.212 831.029 652.874 832.311 657.787Z" fill="white" stroke="#FFC9AB" stroke-width="5" stroke-miterlimit="10"/>
<path d="M821.415 649.212C813.419 649.304 806.43 654.644 804.293 662.364L797.793 685.952C796.877 686.104 795.931 686.257 794.985 686.379C794.374 686.47 793.764 686.562 793.123 686.653C787.385 687.447 781.129 688.026 774.506 688.362C773.834 688.393 773.194 688.423 772.522 688.454C768.89 688.606 765.136 688.698 761.321 688.698C758.391 688.698 755.492 688.637 752.654 688.545C751.952 688.515 751.25 688.484 750.548 688.454C750.273 688.454 749.998 688.423 749.724 688.423L756.926 662.364C759.063 654.583 766.143 649.212 774.231 649.212H821.415Z" fill="white" stroke="#FFC9AB" stroke-width="5" stroke-miterlimit="10"/>
<path d="M802.127 140.753L874.184 345.931H610.309L680.444 140.753H802.127Z" fill="#FFC9AB"/>
<path d="M741.85 116.311C741.85 107.767 748.778 100.84 757.323 100.84H766.266C774.811 100.84 781.739 107.767 781.739 116.311V316.515" stroke="#66B0F0" stroke-width="6" stroke-miterlimit="10"/>
<path d="M802.524 339.401V345.595H737.272V339.401C737.272 334.122 739.072 329.24 742.094 325.364C746.275 319.994 752.837 316.515 760.162 316.515H779.603C779.908 316.515 780.244 316.515 780.549 316.546C792.788 317.034 802.524 327.073 802.524 339.401Z" fill="white" stroke="#04325A" stroke-width="6" stroke-miterlimit="10"/>
<path d="M817.021 141.607H666.038V136.877C666.038 125.557 675.225 116.402 686.517 116.402H796.542C807.865 116.402 817.021 125.587 817.021 136.877V141.607Z" fill="#04325A"/>
<path d="M817.021 137.823H666.038" stroke="white" stroke-width="5" stroke-miterlimit="10" stroke-linecap="round"/>
<path d="M801.242 141.607C801.242 147.008 797.884 151.402 793.703 151.402H688.043C683.892 151.402 680.505 147.008 680.505 141.607H801.242Z" fill="white"/>
<path d="M781.74 322.496C781.74 332.291 772.797 340.255 761.78 340.255C751.861 340.255 743.62 333.817 742.094 325.364C746.275 319.994 752.837 316.515 760.162 316.515H779.603C779.908 316.515 780.244 316.515 780.549 316.546C781.343 318.407 781.74 320.421 781.74 322.496Z" fill="white" stroke="#04325A" stroke-width="6" stroke-miterlimit="10"/>
<path d="M762.329 312.335V321.916C762.329 323.869 760.528 325.456 758.331 325.456C756.133 325.456 754.333 323.869 754.333 321.916V312.335H754.394C754.76 314.013 756.378 315.295 758.3 315.295C760.223 315.295 761.841 314.013 762.207 312.335H762.329Z" fill="#04325A"/>
<path d="M761.474 311.999C761.474 312.213 761.444 312.426 761.413 312.64C761.138 314.165 759.856 315.295 758.3 315.295C756.774 315.295 755.492 314.165 755.187 312.64C755.156 312.426 755.126 312.213 755.126 311.999C755.126 310.168 756.53 308.703 758.3 308.703C760.04 308.703 761.474 310.199 761.474 311.999Z" fill="white" stroke="#04325A" stroke-width="6" stroke-miterlimit="10"/>
<path d="M657.523 206.847H647.085V345.931H657.523V206.847Z" fill="#ED8915"/>
<path d="M642.721 345.931H624.836C622.944 345.931 621.418 344.405 621.418 342.513V239.131C621.418 237.239 622.944 235.713 624.836 235.713H642.721C644.613 235.713 646.139 237.239 646.139 239.131V342.513C646.139 344.405 644.613 345.931 642.721 345.931Z" fill="white" stroke="#FFC9AB" stroke-width="5" stroke-miterlimit="10"/>
<path d="M700.251 343.703H679.712C678.216 343.703 676.934 342.635 676.66 341.171L658.225 245.417C657.859 243.494 659.324 241.725 661.277 241.725H681.817C683.313 241.725 684.595 242.793 684.869 244.257L703.303 340.011C703.67 341.934 702.205 343.703 700.251 343.703Z" stroke="#66B0F0" stroke-width="6" stroke-miterlimit="10"/>
<path d="M617.328 345.931H520.58C518.321 345.931 516.49 344.1 516.49 341.842V322.038C516.49 319.78 518.321 317.949 520.58 317.949H617.328C619.587 317.949 621.418 319.78 621.418 322.038V341.842C621.418 344.1 619.587 345.931 617.328 345.931Z" fill="#04325A"/>
<path d="M255.025 6.48991V69.5934C255.025 81.9517 244.984 91.9909 232.623 91.9909H162.641C175.001 91.9909 185.042 81.9822 185.042 69.5934V6.48991H255.025Z" fill="white" stroke="#FFC9AB" stroke-width="5" stroke-miterlimit="10"/>
<path d="M222.704 0.387047H217.058V13.8439H222.704V0.387047Z" fill="#04325A"/>
<path d="M234.668 30.4741C233.875 30.4741 233.081 30.169 232.44 29.5892L230.09 27.5143C229.358 26.8735 228.381 26.8735 227.648 27.5143L225.421 29.4977C224.108 30.6572 222.277 30.6572 220.934 29.4977L218.889 27.6973C218.157 27.0565 217.18 27.0565 216.448 27.6973L214.555 29.3756C213.243 30.5352 211.412 30.5352 210.069 29.3756L208.512 28.0025C207.78 27.3617 206.803 27.3617 206.071 28.0025L204.392 29.4977C203.08 30.6572 201.249 30.6572 199.906 29.4977L198.349 28.1245C197.617 27.4837 196.64 27.4837 195.908 28.1245C195.602 28.3992 195.114 28.3687 194.839 28.0635C194.565 27.7584 194.595 27.2701 194.901 26.9955C196.213 25.836 198.044 25.836 199.387 26.9955L200.943 28.3687C201.676 29.0095 202.653 29.0095 203.385 28.3687L205.064 26.8735C206.376 25.7139 208.207 25.7139 209.55 26.8735L211.107 28.2466C211.839 28.8874 212.816 28.8874 213.548 28.2466L215.44 26.5683C216.753 25.4088 218.584 25.4088 219.927 26.5683L221.972 28.3687C222.704 29.0095 223.681 29.0095 224.413 28.3687L226.641 26.3852C227.954 25.2257 229.785 25.2257 231.128 26.3852L233.478 28.4602C234.21 29.101 235.187 29.101 235.919 28.4602L238.361 26.2937C239.673 25.1341 241.505 25.1341 242.847 26.2937C243.153 26.5683 243.183 27.0565 242.908 27.3617C242.634 27.6668 242.145 27.6973 241.84 27.4227C241.108 26.7819 240.131 26.7819 239.399 27.4227L236.957 29.5892C236.225 30.169 235.462 30.4741 234.668 30.4741Z" fill="#FFC9AB"/>
<path d="M234.668 43.0154C233.875 43.0154 233.081 42.7103 232.44 42.1305L230.09 40.0555C229.358 39.4147 228.381 39.4147 227.648 40.0555L225.421 42.039C224.108 43.1985 222.277 43.1985 220.934 42.039L218.889 40.2386C218.157 39.5978 217.18 39.5978 216.448 40.2386L214.555 41.9169C213.243 43.0765 211.412 43.0765 210.069 41.9169L208.512 40.5438C207.78 39.903 206.803 39.903 206.071 40.5438L204.392 42.039C203.08 43.1985 201.249 43.1985 199.906 42.039L198.349 40.6658C197.617 40.025 196.64 40.025 195.908 40.6658C195.602 40.9404 195.114 40.9099 194.839 40.6048C194.565 40.2996 194.595 39.8114 194.901 39.5368C196.213 38.3772 198.044 38.3772 199.387 39.5368L200.943 40.9099C201.676 41.5507 202.653 41.5507 203.385 40.9099L205.064 39.4147C206.376 38.2552 208.207 38.2552 209.55 39.4147L211.107 40.7879C211.839 41.4287 212.816 41.4287 213.548 40.7879L215.44 39.1096C216.753 37.95 218.584 37.95 219.927 39.1096L221.972 40.9099C222.704 41.5507 223.681 41.5507 224.413 40.9099L226.641 38.9265C227.954 37.7669 229.785 37.7669 231.128 38.9265L233.478 41.0015C234.21 41.6423 235.187 41.6423 235.919 41.0015L238.361 38.8349C239.673 37.6754 241.505 37.6754 242.847 38.8349C243.153 39.1096 243.183 39.5978 242.908 39.9029C242.634 40.2081 242.145 40.2386 241.84 39.964C241.108 39.3232 240.131 39.3232 239.399 39.964L236.957 42.1305C236.225 42.7408 235.462 43.0154 234.668 43.0154Z" fill="#FFC9AB"/>
<path d="M234.668 55.557C233.875 55.557 233.081 55.2518 232.44 54.672L230.09 52.5971C229.358 51.9563 228.381 51.9563 227.648 52.5971L225.421 54.5805C224.108 55.7401 222.277 55.7401 220.934 54.5805L218.889 52.7801C218.157 52.1393 217.18 52.1393 216.448 52.7801L214.555 54.4584C213.243 55.618 211.412 55.618 210.069 54.4584L208.512 53.0853C207.78 52.4445 206.803 52.4445 206.071 53.0853L204.392 54.5805C203.08 55.7401 201.249 55.7401 199.906 54.5805L198.349 53.2074C197.617 52.5666 196.64 52.5666 195.908 53.2074C195.602 53.482 195.114 53.4515 194.839 53.1463C194.565 52.8412 194.595 52.3529 194.901 52.0783C196.213 50.9188 198.044 50.9188 199.387 52.0783L200.943 53.4515C201.676 54.0923 202.653 54.0923 203.385 53.4515L205.064 51.9563C206.376 50.7967 208.207 50.7967 209.55 51.9563L211.107 53.3294C211.839 53.9702 212.816 53.9702 213.548 53.3294L215.44 51.6511C216.753 50.4916 218.584 50.4916 219.927 51.6511L221.972 53.4515C222.704 54.0923 223.681 54.0923 224.413 53.4515L226.641 51.468C227.954 50.3085 229.785 50.3085 231.128 51.468L233.478 53.543C234.21 54.1838 235.187 54.1838 235.919 53.543L238.361 51.3765C239.673 50.2169 241.505 50.2169 242.847 51.3765C243.153 51.6511 243.183 52.1394 242.908 52.4445C242.634 52.7496 242.145 52.7801 241.84 52.5055C241.108 51.8647 240.131 51.8647 239.399 52.5055L236.957 54.672C236.225 55.2823 235.462 55.557 234.668 55.557Z" fill="#FFC9AB"/>
<path d="M234.668 68.1288C233.875 68.1288 233.081 67.8237 232.44 67.2439L230.09 65.1689C229.358 64.5281 228.381 64.5281 227.648 65.1689L225.421 67.1523C224.108 68.3119 222.277 68.3119 220.934 67.1523L218.889 65.352C218.157 64.7112 217.18 64.7112 216.448 65.352L214.555 67.0303C213.243 68.1898 211.412 68.1898 210.069 67.0303L208.512 65.6571C207.78 65.0163 206.803 65.0163 206.071 65.6571L204.392 67.1523C203.08 68.3119 201.249 68.3119 199.906 67.1523L198.349 65.7792C197.617 65.1384 196.64 65.1384 195.908 65.7792C195.602 66.0538 195.114 66.0233 194.839 65.7182C194.565 65.413 194.595 64.9248 194.901 64.6502C196.213 63.4906 198.044 63.4906 199.387 64.6502L200.943 66.0233C201.676 66.6641 202.653 66.6641 203.385 66.0233L205.064 64.5281C206.376 63.3686 208.207 63.3686 209.55 64.5281L211.107 65.9013C211.839 66.5421 212.816 66.5421 213.548 65.9013L215.44 64.223C216.753 63.0634 218.584 63.0634 219.927 64.223L221.972 66.0233C222.704 66.6641 223.681 66.6641 224.413 66.0233L226.641 64.0399C227.954 62.8804 229.785 62.8804 231.128 64.0399L233.478 66.1149C234.21 66.7557 235.187 66.7557 235.919 66.1149L238.361 63.9483C239.673 62.7888 241.505 62.7888 242.847 63.9483C243.153 64.223 243.183 64.7112 242.908 65.0163C242.634 65.3215 242.145 65.352 241.84 65.0774C241.108 64.4366 240.131 64.4366 239.399 65.0774L236.957 67.2439C236.225 67.8237 235.462 68.1288 234.668 68.1288Z" fill="#FFC9AB"/>
<path d="M327.083 6.48991H278.129V55.4348H327.083V6.48991Z" fill="#66B0F0"/>
<path d="M288.89 4.39657L285.34 0.00578308L272.403 10.4596L275.952 14.8504L288.89 4.39657Z" fill="#FFC9AB"/>
<path d="M329.622 14.8445L333.172 10.4537L320.234 -6.80796e-05L316.685 4.39073L329.622 14.8445Z" fill="#FFC9AB"/>
<path d="M316.737 18.0853H287.041V19.9162H316.737V18.0853Z" fill="white"/>
<path d="M316.737 25.9885H287.041V27.8193H316.737V25.9885Z" fill="white"/>
<path d="M316.737 33.9222H287.041V35.753H316.737V33.9222Z" fill="white"/>
<path d="M316.737 41.8254H287.041V43.6563H316.737V41.8254Z" fill="white"/>
<path d="M514.201 345.931H400.087L422.184 297.108L425.419 289.937H488.87L497.782 309.619L514.201 345.931Z" fill="white" stroke="#66B0F0" stroke-width="6" stroke-miterlimit="10"/>
<path d="M497.781 309.619L422.183 297.108L425.419 289.937H488.87L497.781 309.619Z" fill="#66B0F0"/>
<path d="M591.631 289.937H323.024C313.166 289.937 305.2 281.942 305.2 272.117V96.8122C305.2 86.9561 313.196 78.9919 323.024 78.9919H591.631C601.489 78.9919 609.454 86.9866 609.454 96.8122V272.086C609.454 281.942 601.458 289.937 591.631 289.937Z" fill="white" stroke="#66B0F0" stroke-width="6" stroke-miterlimit="10"/>
<path d="M511.149 277.548H403.475C398.225 277.548 393.983 273.307 393.983 268.058V255.029C393.983 249.78 398.225 245.539 403.475 245.539H511.149C516.399 245.539 520.641 249.78 520.641 255.029V268.058C520.641 273.307 516.368 277.548 511.149 277.548Z" fill="#66B0F0"/>
<path d="M482.888 268.852H475.624C473.824 268.852 472.359 267.387 472.359 265.587V259.911C472.359 258.111 473.824 256.646 475.624 256.646H482.888C484.689 256.646 486.154 258.111 486.154 259.911V265.587C486.154 267.387 484.689 268.852 482.888 268.852Z" fill="white"/>
<path d="M492.135 267.906L489.45 266.197C488.717 265.739 488.259 264.915 488.259 264.031V261.467C488.259 260.582 488.717 259.759 489.45 259.301L492.135 257.592C492.776 257.195 493.6 257.653 493.6 258.385V267.082C493.631 267.845 492.776 268.303 492.135 267.906Z" fill="white"/>
<path d="M455.359 265.983H454.688C452.033 265.983 449.866 263.817 449.866 261.162V258.324C449.866 258.08 450.079 257.867 450.323 257.867H459.693C459.937 257.867 460.151 258.08 460.151 258.324V261.162C460.181 263.817 458.015 265.983 455.359 265.983ZM450.781 258.782V261.162C450.781 263.298 452.521 265.068 454.688 265.068H455.359C457.496 265.068 459.266 263.329 459.266 261.162V258.782H450.781Z" fill="white"/>
<path d="M455.023 271.262C454.779 271.262 454.566 271.049 454.566 270.805V267.357C454.566 267.112 454.779 266.899 455.023 266.899C455.267 266.899 455.481 267.112 455.481 267.357V270.805C455.481 271.049 455.267 271.262 455.023 271.262Z" fill="white"/>
<path d="M457.435 271.262H452.643C452.399 271.262 452.185 271.049 452.185 270.805C452.185 270.561 452.399 270.347 452.643 270.347H457.435C457.679 270.347 457.893 270.561 457.893 270.805C457.893 271.049 457.679 271.262 457.435 271.262Z" fill="white"/>
<path d="M455.237 263.847H454.81C453.284 263.847 452.063 262.627 452.063 261.101V255.548C452.063 254.022 453.284 252.801 454.81 252.801H455.237C456.763 252.801 457.984 254.022 457.984 255.548V261.101C457.984 262.627 456.763 263.847 455.237 263.847Z" fill="white"/>
<path d="M427.158 260.399L427.128 260.43C426.548 261.132 426.731 262.2 427.494 262.841L430.302 265.099C431.065 265.709 432.164 265.648 432.743 264.946L432.774 264.915C433.354 264.214 434.453 264.183 435.185 264.824L437.718 267.113C438.512 267.845 438.512 269.065 437.718 269.615C435.063 271.476 431.614 270.805 428.776 268.516L424.503 265.068C421.665 262.749 420.291 259.514 421.543 256.524C421.939 255.609 423.13 255.364 423.984 256.005L426.762 258.019C427.525 258.63 427.708 259.698 427.158 260.399Z" fill="white"/>
<path d="M434.605 262.169C434.361 262.169 434.178 261.986 434.147 261.742C433.995 259.545 432.103 257.867 429.905 258.019C429.661 258.019 429.447 257.836 429.417 257.592C429.386 257.348 429.6 257.134 429.844 257.104C432.56 256.921 434.88 258.996 435.063 261.681C435.094 261.925 434.91 262.139 434.605 262.169C434.636 262.169 434.636 262.169 434.605 262.169Z" fill="white"/>
<path d="M437.474 261.711C437.23 261.711 437.047 261.528 437.016 261.284C436.894 259.453 436.07 257.745 434.666 256.524C433.262 255.303 431.492 254.693 429.661 254.815C429.417 254.815 429.203 254.632 429.172 254.388C429.142 254.144 429.356 253.93 429.6 253.9C431.675 253.778 433.689 254.449 435.276 255.822C436.864 257.195 437.779 259.118 437.932 261.193C437.962 261.498 437.749 261.711 437.474 261.711C437.504 261.711 437.504 261.711 437.474 261.711Z" fill="white"/>
<path d="M540.692 95.5002C542.445 95.5002 543.866 94.0794 543.866 92.3267C543.866 90.574 542.445 89.1532 540.692 89.1532C538.939 89.1532 537.518 90.574 537.518 92.3267C537.518 94.0794 538.939 95.5002 540.692 95.5002Z" stroke="#FFC9AB" stroke-width="5" stroke-miterlimit="10"/>
<path d="M553.663 95.5002C555.416 95.5002 556.837 94.0794 556.837 92.3267C556.837 90.574 555.416 89.1532 553.663 89.1532C551.91 89.1532 550.489 90.574 550.489 92.3267C550.489 94.0794 551.91 95.5002 553.663 95.5002Z" stroke="#FFC9AB" stroke-width="5" stroke-miterlimit="10"/>
<path d="M566.665 95.5002C568.418 95.5002 569.839 94.0794 569.839 92.3267C569.839 90.574 568.418 89.1532 566.665 89.1532C564.912 89.1532 563.491 90.574 563.491 92.3267C563.491 94.0794 564.912 95.5002 566.665 95.5002Z" stroke="#FFC9AB" stroke-width="5" stroke-miterlimit="10"/>
<path d="M446.019 237.727H350.37C347.44 237.727 345.09 235.347 345.09 232.448V181.245C345.09 178.316 347.47 175.966 350.37 175.966H446.019C448.949 175.966 451.299 178.346 451.299 181.245V232.448C451.299 235.347 448.949 237.727 446.019 237.727Z" stroke="#66B0F0" stroke-width="6" stroke-miterlimit="10"/>
<path d="M566.665 237.727H471.015C468.085 237.727 465.735 235.347 465.735 232.448V181.245C465.735 178.316 468.116 175.966 471.015 175.966H566.665C569.595 175.966 571.945 178.346 571.945 181.245V232.448C571.945 235.347 569.595 237.727 566.665 237.727Z" fill="#ED8915"/>
<path d="M548.597 237.575H486.092C492.41 229.794 502.054 224.789 512.858 224.789H521.831C532.635 224.82 542.279 229.794 548.597 237.575Z" fill="#04325A"/>
<path d="M515.391 224.82C514.781 229.427 510.844 232.967 506.083 232.967C502.573 232.967 499.521 231.045 497.903 228.207C502.42 226.04 507.486 224.82 512.827 224.82H515.391Z" fill="white"/>
<path d="M533.856 226.956C532.483 230.465 529.095 232.936 525.097 232.936C520.336 232.936 516.399 229.397 515.788 224.789H521.862C526.073 224.82 530.102 225.552 533.856 226.956Z" fill="white"/>
<path d="M526.989 211.21V225.064C526.989 227.23 522.655 228.97 517.345 228.97C516.368 228.97 515.422 228.909 514.537 228.817C510.569 228.329 507.7 226.834 507.7 225.064V211.21H526.989Z" fill="#A0505A"/>
<path d="M525.707 214.048C525.707 220.059 520.458 227.352 514.537 228.787C510.569 228.298 507.7 226.803 507.7 225.033V211.18H525.402L525.707 214.048Z" fill="#73325A"/>
<path d="M531.933 209.44V209.776C531.933 212.126 530.01 214.048 527.66 214.048H523.571C521.709 218.045 517.65 220.792 512.95 220.792H512.156C506.907 220.792 502.665 216.55 502.665 211.302V201.507C508.738 201.903 516.46 196.594 516.46 196.594C518.993 206.389 526.226 206.267 529.583 205.626C530.957 206.328 531.933 207.793 531.933 209.44Z" fill="#A0505A"/>
<path d="M525.92 210.936C525.676 210.936 525.463 210.722 525.463 210.478C525.463 208.525 527.05 206.938 529.003 206.938C529.247 206.938 529.461 207.152 529.461 207.396C529.461 207.64 529.247 207.854 529.003 207.854C527.569 207.854 526.378 209.013 526.378 210.478C526.378 210.722 526.165 210.936 525.92 210.936Z" fill="#73325A"/>
<path d="M526.989 214.048H527.661C530.011 214.048 531.933 212.126 531.933 209.776V209.441C531.933 207.762 530.987 206.328 529.583 205.626C528.668 205.809 527.416 205.931 526.074 205.84C522.594 205.565 518.291 203.673 516.46 196.594C516.46 196.594 508.738 201.903 502.665 201.507C501.536 201.446 500.467 201.171 499.521 200.622C494.485 197.754 506.663 184.327 520.641 186.341C531.811 187.958 531.567 201.324 531.353 204.497C531.903 204.436 532.452 204.406 533.002 204.406C541.181 204.406 547.804 210.692 547.804 218.473C547.804 223.538 544.996 227.993 540.754 230.465C536.694 227.78 532.025 225.949 526.989 225.186V214.048Z" fill="#FFC9AB"/>
<path d="M508.829 211.271C508.768 211.271 508.707 211.271 508.677 211.241C508.433 211.149 508.31 210.875 508.402 210.661C508.402 210.631 509.318 208.159 507.792 205.504C506.479 203.216 503.58 203.612 503.458 203.643C503.214 203.673 502.969 203.521 502.939 203.246C502.908 203.002 503.061 202.758 503.336 202.727C503.488 202.697 506.968 202.209 508.616 205.046C510.355 208.067 509.318 210.875 509.287 210.966C509.165 211.149 509.012 211.271 508.829 211.271Z" fill="#73325A"/>
<path d="M519.237 205.474C519.145 205.474 519.054 205.443 518.962 205.382C516.307 203.338 512.767 203.582 512.736 203.582C512.492 203.612 512.278 203.399 512.248 203.155C512.217 202.91 512.431 202.697 512.675 202.666C512.828 202.666 516.582 202.392 519.511 204.65C519.725 204.802 519.756 205.077 519.603 205.291C519.481 205.413 519.359 205.474 519.237 205.474Z" fill="#73325A"/>
<path d="M507.243 212.309C507.243 212.309 507.975 217.13 512.95 212.431C512.95 212.431 509.47 212.889 507.243 212.309Z" fill="white"/>
<path d="M514.903 208.25C515.257 208.25 515.544 207.608 515.544 206.816C515.544 206.024 515.257 205.382 514.903 205.382C514.549 205.382 514.262 206.024 514.262 206.816C514.262 207.608 514.549 208.25 514.903 208.25Z" fill="#73325A"/>
<path d="M505.38 208.006C505.684 208.006 505.93 207.474 505.93 206.816C505.93 206.159 505.684 205.626 505.38 205.626C505.077 205.626 504.831 206.159 504.831 206.816C504.831 207.474 505.077 208.006 505.38 208.006Z" fill="#73325A"/>
<path d="M565.475 167.758H469.825C466.895 167.758 464.545 165.378 464.545 162.479V111.276C464.545 108.347 466.926 105.997 469.825 105.997H565.475C568.405 105.997 570.755 108.377 570.755 111.276V162.479C570.755 165.378 568.374 167.758 565.475 167.758Z" fill="#66B0F0"/>
<path d="M546.003 167.758H487.618C493.508 159.916 502.512 154.911 512.614 154.911H521.007C531.109 154.911 540.112 159.916 546.003 167.758Z" fill="#FFC9AB"/>
<path d="M513.712 165.134H515.025C520.732 165.134 525.371 160.496 525.371 154.789V147.435C525.371 147.405 525.34 147.374 525.31 147.374H506.113C506.082 147.374 506.052 147.405 506.052 147.435V157.536C506.082 161.747 509.501 165.134 513.712 165.134Z" fill="white"/>
<path d="M506.083 147.374V157.292C506.083 157.414 506.083 157.566 506.083 157.688C506.357 163.364 520.488 161.136 524.73 147.374H506.083Z" fill="#FFC9AB"/>
<path d="M530.956 142.95C530.956 144.17 530.468 145.269 529.644 146.093C528.85 146.886 527.751 147.374 526.5 147.374H522.319C520.823 151.341 516.978 154.149 512.491 154.149H509.226C504.678 154.149 501.016 150.456 501.016 145.94V133.124C505.716 133.521 509.684 129.737 509.836 129.585C509.775 129.798 507.395 136.511 512.797 136.877C518.168 137.244 519.938 133.368 519.999 133.216C519.999 133.368 520.03 138.556 524.272 138.83H526.5C528.972 138.83 530.956 140.509 530.956 142.95Z" fill="white"/>
<path d="M524.669 138.83H524.578C524.486 138.83 524.395 138.83 524.303 138.83C520.061 138.556 520.03 133.399 520.03 133.216C519.969 133.368 518.169 137.244 512.828 136.877C507.456 136.511 509.806 129.798 509.867 129.585C509.714 129.707 505.747 133.521 501.047 133.124C500.009 133.033 498.971 132.758 497.903 132.178C491.036 128.456 495.462 120.796 502.207 120.705C507.578 120.644 509.867 123.573 509.867 123.573C509.867 123.573 511.027 117.562 517.619 118.599C524.211 119.637 523.021 125.465 523.021 125.465C523.021 125.465 528.545 122.902 531.597 127.632C535.199 133.185 529.797 138.83 524.669 138.83Z" fill="#04325A"/>
<path d="M506.632 144.414C506.601 144.414 506.571 144.414 506.51 144.414C506.266 144.353 506.113 144.109 506.174 143.865C506.174 143.835 506.907 140.814 505.594 138.342C504.16 135.718 501.688 136.145 501.596 136.145C501.352 136.176 501.108 136.023 501.077 135.779C501.016 135.535 501.199 135.291 501.444 135.26C501.474 135.26 504.679 134.68 506.418 137.915C507.914 140.692 507.12 143.957 507.09 144.079C506.998 144.262 506.815 144.414 506.632 144.414Z" fill="#FFC9AB"/>
<path d="M508.25 147.954C507.609 147.954 507.029 147.863 506.602 147.74C506.357 147.679 506.205 147.435 506.266 147.191C506.327 146.947 506.571 146.795 506.815 146.856C506.968 146.886 510.447 147.801 511.729 145.116C511.851 144.903 512.095 144.781 512.339 144.903C512.584 145.025 512.675 145.269 512.553 145.513C511.668 147.435 509.806 147.954 508.25 147.954Z" fill="#FFC9AB"/>
<path d="M512.675 140.753C513.029 140.753 513.316 140.111 513.316 139.319C513.316 138.526 513.029 137.884 512.675 137.884C512.321 137.884 512.034 138.526 512.034 139.319C512.034 140.111 512.321 140.753 512.675 140.753Z" fill="#FFC9AB"/>
<path d="M503.183 140.509C503.486 140.509 503.732 139.976 503.732 139.319C503.732 138.661 503.486 138.129 503.183 138.129C502.88 138.129 502.634 138.661 502.634 139.319C502.634 139.976 502.88 140.509 503.183 140.509Z" fill="#FFC9AB"/>
<path d="M524.211 144.628C523.967 144.628 523.753 144.414 523.753 144.17C523.753 142.217 525.34 140.631 527.294 140.631C527.538 140.631 527.751 140.844 527.751 141.088C527.751 141.333 527.538 141.546 527.294 141.546C525.859 141.546 524.669 142.706 524.669 144.17C524.669 144.414 524.455 144.628 524.211 144.628Z" fill="#FFC9AB"/>
<path d="M444.798 167.758H349.149C346.219 167.758 343.869 165.378 343.869 162.479V111.276C343.869 108.347 346.249 105.997 349.149 105.997H444.798C447.728 105.997 450.078 108.377 450.078 111.276V162.479C450.109 165.378 447.728 167.758 444.798 167.758Z" fill="#FFC9AB"/>
<path d="M421.695 167.758H362.364C368.346 158.817 377.502 153.111 387.757 153.111H396.303C406.557 153.111 415.683 158.817 421.695 167.758Z" fill="white"/>
<path d="M421.695 167.758H362.364C362.547 167.483 362.73 167.239 362.914 166.964C362.944 166.903 362.975 166.842 363.036 166.812H421.054C421.085 166.873 421.115 166.903 421.176 166.964C421.329 167.209 421.512 167.483 421.695 167.758Z" fill="#FEB040"/>
<path d="M419.192 164.432H364.867C365.141 164.096 365.416 163.791 365.691 163.486H418.368C418.643 163.791 418.918 164.096 419.192 164.432Z" fill="#FEB040"/>
<path d="M415.835 160.953H368.224C368.59 160.618 368.956 160.312 369.323 160.007H414.736C415.103 160.312 415.469 160.618 415.835 160.953Z" fill="#FEB040"/>
<path d="M410.708 157.139H373.321C373.87 156.803 374.45 156.498 375.03 156.193H408.968C409.578 156.498 410.128 156.803 410.708 157.139Z" fill="#FEB040"/>
<path d="M401.491 141.699V155.339C401.491 156.742 397.157 157.871 391.847 157.871C386.658 157.871 382.416 156.803 382.202 155.43C382.202 155.4 382.202 155.369 382.202 155.339V141.699H401.491Z" fill="#E57281"/>
<path d="M401.369 141.699V142.004C401.369 148.717 393.037 156.407 387.025 157.292C386.078 157.444 383.149 156.864 382.233 155.4C382.233 155.369 382.233 155.339 382.233 155.308V141.668H401.369V141.699Z" fill="#9A3B82"/>
<path d="M406.74 137.396V137.701C406.74 140.051 404.818 141.973 402.468 141.973H398.775C397.584 146.245 393.678 149.358 389.039 149.358H385.102C380.737 149.358 377.167 145.818 377.167 141.424V124.061C384.491 126.106 397.584 124.184 397.584 124.184C397.584 124.184 396.394 128.456 398.653 133.094H402.498C404.818 133.124 406.74 135.047 406.74 137.396Z" fill="#E57281"/>
<path d="M402.315 132.575H398.836C395.875 127.571 397.554 124.245 397.554 124.245C397.554 124.245 384.461 126.136 377.136 124.123C373.809 123.207 371.673 121.468 372.466 118.386C375 108.499 402.285 119.027 404.177 122.597C406.1 126.167 402.315 132.575 402.315 132.575Z" fill="white" stroke="#FEB040" stroke-width="4" stroke-miterlimit="10"/>
<path d="M388.764 141.943C388.673 142.034 388.581 142.065 388.459 142.065C388.337 142.065 388.215 142.004 388.123 141.912L387.696 141.455C386.384 142.614 385.132 143.194 383.972 143.194C383.85 143.194 383.728 143.194 383.637 143.163C382.355 143.041 381.714 142.187 381.683 142.157C381.531 141.943 381.561 141.668 381.775 141.516C381.989 141.363 382.263 141.394 382.416 141.607C382.446 141.638 382.874 142.187 383.759 142.279C384.735 142.37 385.865 141.851 387.086 140.783L386.841 140.509C386.658 140.326 386.689 140.021 386.872 139.868C387.055 139.685 387.36 139.715 387.513 139.898L388.795 141.302C388.978 141.485 388.947 141.76 388.764 141.943Z" fill="#9A3B82"/>
<path d="M393.403 132.85C393.281 132.85 393.159 132.819 393.067 132.728C390.382 130.103 386.963 130.622 386.933 130.622C386.689 130.653 386.445 130.5 386.414 130.256C386.384 130.012 386.536 129.768 386.78 129.737C386.933 129.707 390.687 129.096 393.708 132.087C393.891 132.27 393.891 132.544 393.708 132.728C393.647 132.819 393.525 132.85 393.403 132.85Z" fill="#9A3B82"/>
<path d="M382.996 139.258C382.965 139.258 382.904 139.258 382.874 139.227C382.63 139.166 382.508 138.891 382.569 138.647C382.569 138.617 383.515 135.504 381.989 132.85C380.676 130.561 377.716 131.263 377.686 131.293C377.441 131.354 377.197 131.202 377.136 130.958C377.075 130.714 377.228 130.47 377.472 130.409C378.723 130.103 381.47 130.103 382.782 132.422C384.522 135.443 383.515 138.8 383.454 138.953C383.362 139.136 383.21 139.258 382.996 139.258Z" fill="#9A3B82"/>
<path d="M379.578 135.687C379.881 135.687 380.127 135.155 380.127 134.497C380.127 133.84 379.881 133.307 379.578 133.307C379.274 133.307 379.028 133.84 379.028 134.497C379.028 135.155 379.274 135.687 379.578 135.687Z" fill="#9A3B82"/>
<path d="M389.07 135.932C389.424 135.932 389.711 135.289 389.711 134.497C389.711 133.705 389.424 133.063 389.07 133.063C388.716 133.063 388.429 133.705 388.429 134.497C388.429 135.289 388.716 135.932 389.07 135.932Z" fill="#9A3B82"/>
<path d="M400.087 138.952C399.843 138.952 399.629 138.739 399.629 138.495C399.629 136.511 401.247 134.894 403.231 134.894C403.475 134.894 403.689 135.108 403.689 135.352C403.689 135.596 403.475 135.81 403.231 135.81C401.735 135.81 400.545 137 400.545 138.495C400.545 138.739 400.362 138.952 400.087 138.952Z" fill="#9A3B82"/>
<path d="M557.204 714.604C556.38 714.36 555.922 714.238 555.922 714.238L545.942 746.919L508.372 737.063C508.067 736.788 507.914 736.636 507.914 736.636C507.914 736.636 355.772 617.416 347.776 560.202C339.81 502.988 403.536 448.703 403.536 448.703C403.536 448.703 539.441 705.542 556.258 713.933C556.594 714.116 556.929 714.33 557.204 714.604Z" fill="#A0505A"/>
<path d="M435.704 508.786C430.942 534.265 414.218 585.865 396.913 635.786C371.276 608.171 350.583 580.311 347.776 560.172C342.709 523.921 366.484 488.799 384.552 467.988C391.175 462.678 398.317 457.796 406.038 453.433C410.769 462.312 421.725 482.879 435.704 508.786Z" fill="#73325A"/>
<path d="M579.086 718.632C579.086 718.632 576.736 693.794 570.846 695.35C564.955 696.937 572.341 721.714 578.964 718.999C585.587 716.283 592.21 698.676 592.21 698.676" stroke="#04325A" stroke-width="6" stroke-miterlimit="10"/>
<path d="M390.626 436.223C390.626 436.223 412.997 446.659 412.997 484.923C412.997 521.907 327.602 748.384 327.602 748.384L301.324 770.659L274.65 741.457C287.682 729.068 250.264 505.093 390.626 436.223Z" fill="#A0505A"/>
<path d="M390.625 436.223C337.856 462.099 310.205 509.945 295.586 560.202H135.448C94.4594 560.202 63.9089 522.395 72.546 482.33L84.2962 427.77H362.73C373.046 427.77 382.629 430.883 390.625 436.223Z" fill="#04325A"/>
<path d="M271.72 488.524L329.372 488.402L320.827 502.408L271.72 488.524Z" fill="#A0505A"/>
<path d="M390.931 435.917C364.683 448.794 344.662 467.103 329.341 488.433H183.242C156.903 488.433 137.248 464.235 142.62 438.45L144.848 427.77" stroke="white" stroke-width="6" stroke-miterlimit="10" stroke-linecap="round"/>
<path d="M295.8 560.172C301.629 540.124 309.504 520.442 320.216 502.408L271.72 488.494" stroke="white" stroke-width="6" stroke-miterlimit="10" stroke-linecap="round"/>
<path d="M46.8787 281.21L76.2085 396.249H21.486C-10.3768 396.249 -30.8863 362.409 -16.1146 334.183L25.9115 253.839C37.8143 231.106 61.3452 216.855 87.0125 216.855H96.9315C63.2374 216.825 38.5468 248.56 46.8787 281.21Z" fill="#ED8915"/>
<path d="M384.613 251.367C401.857 251.367 416.201 249.079 419.68 245.875L366.179 361.829C356.504 382.823 335.476 396.249 312.372 396.249C305.597 396.249 298.943 395.089 292.656 392.862C286.369 390.634 280.448 387.369 275.168 383.097L241.444 355.878C241.444 355.878 238.086 375.621 214.128 380.656V427.709H84.2657L46.8787 281.18C38.5467 248.529 63.2374 216.764 96.9315 216.764H187.851C195.877 216.764 203.782 217.771 211.412 219.724C232.288 225.033 251.027 237.3 264.273 254.876L308.71 313.83L348.63 244.074C348.63 244.135 348.599 244.227 348.599 244.288C348.63 248.346 364.775 251.367 384.613 251.367Z" fill="#ED8915"/>
<path d="M46.5735 281.21L75.2929 397.164" stroke="white" stroke-width="6" stroke-miterlimit="10" stroke-linecap="round"/>
<path d="M241.749 357.435L216.234 330.277" stroke="white" stroke-width="6" stroke-miterlimit="10" stroke-linecap="round"/>
<path d="M420.474 244.166L419.681 245.875C416.201 249.109 401.857 251.367 384.613 251.367C364.775 251.367 348.63 248.346 348.63 244.349C348.63 244.288 348.63 244.196 348.661 244.135C349.21 240.229 365.142 236.873 384.644 236.873C404.116 236.873 419.925 240.229 420.474 244.166C420.474 244.135 420.474 244.135 420.474 244.166Z" fill="#04325A"/>
<path d="M436.467 185.578C436.467 187.318 436.04 189.026 435.246 190.522C434.453 192.017 433.293 193.329 431.858 194.336L431.156 194.824L425.693 223.965C424.808 228.695 422 232.875 417.941 235.469L410.464 240.229L404.543 244.013L401.796 250.574C396.699 251.092 390.87 251.398 384.644 251.398C378.357 251.398 372.436 251.092 367.278 250.543V205.352C367.278 203.399 367.705 201.476 368.529 199.706L378.479 178.285C378.479 178.285 389.344 180.971 384.339 194.305C379.791 206.42 390.168 203.307 395.997 201.141C401.216 199.188 424.015 187.592 432.927 183.351C434.575 182.557 436.467 183.778 436.467 185.578Z" fill="#A0505A"/>
<path d="M426.945 212.888C426.059 217.618 423.252 221.768 419.192 224.362L405.794 232.906" stroke="#73325A" stroke-width="5" stroke-miterlimit="10" stroke-linecap="round"/>
<path d="M429.142 200.53C428.257 205.26 425.449 209.41 421.39 212.004L407.992 220.548" stroke="#73325A" stroke-width="5" stroke-miterlimit="10" stroke-linecap="round"/>
<path d="M430.18 195.16L408.633 208.83" stroke="#73325A" stroke-width="5" stroke-miterlimit="10" stroke-linecap="round"/>
<path d="M411.623 239.466L410.433 240.229L404.512 244.013L401.766 250.574C396.669 251.092 390.839 251.398 384.613 251.398C378.326 251.398 372.405 251.092 367.247 250.543V237.849C372.405 237.239 378.326 236.903 384.613 236.903C395.387 236.873 405.031 237.88 411.623 239.466Z" fill="#73325A"/>
<path d="M208.574 219.022C204.148 224.972 187.668 238.978 132.182 238.978C60.7959 238.978 106.484 216.886 106.484 216.886L136.76 166.324L169.234 186.25V202.27C169.234 210.356 175.795 216.886 183.853 216.886H185.958C193.527 216.855 201.341 217.191 208.574 219.022Z" fill="#A0505A"/>
<path d="M169.203 186.219V190.308L106.454 216.855L136.73 166.293L169.203 186.219Z" fill="#73325A"/>
<path d="M170.912 188.203H177.81C184.158 188.203 189.316 183.046 189.316 176.699V138.281H148.144V165.439C148.144 178.011 158.338 188.203 170.912 188.203Z" fill="#A0505A"/>
<path d="M188.431 174.471C184.005 174.471 182.235 171.42 182.235 171.42" stroke="#73325A" stroke-width="5" stroke-miterlimit="10" stroke-linecap="round"/>
<path d="M184.432 162.174C185.242 162.174 185.897 160.903 185.897 159.336C185.897 157.769 185.242 156.498 184.432 156.498C183.623 156.498 182.968 157.769 182.968 159.336C182.968 160.903 183.623 162.174 184.432 162.174Z" fill="#73325A"/>
<path d="M155.988 142.279C155.988 142.279 189.957 162.784 201.005 144.933C210.71 129.279 167.708 121.224 152.692 121.163C136.364 121.102 114.725 128.334 115.091 152.348C115.396 172.122 116.22 201.049 104.501 196.014C62.8103 178.133 25.7591 196.808 25.637 232.387C25.5149 267.967 66.8085 271.293 67.8461 262.108C68.9143 252.954 42.2093 255.059 45.8107 278.83C49.3816 302.601 65.313 332.321 101.693 332.321C145.642 332.352 173.629 274.497 146.435 268.608C125.59 264.092 167.677 304.309 180.16 262.505C193.589 217.496 145.062 202.758 143.871 175.57C142.681 148.381 155.988 142.279 155.988 142.279Z" fill="#FFC9AB" stroke="white" stroke-width="5" stroke-miterlimit="10"/>
<path d="M153.607 158.604H177.901" stroke="#04325A" stroke-width="6" stroke-miterlimit="10"/>
<path d="M185.379 168.368C189.188 168.368 192.276 164.406 192.276 159.519C192.276 154.632 189.188 150.67 185.379 150.67C181.569 150.67 178.481 154.632 178.481 159.519C178.481 164.406 181.569 168.368 185.379 168.368Z" stroke="#04325A" stroke-width="6" stroke-miterlimit="10"/>
<path d="M140.728 147.71V122.017C140.728 118.172 143.841 115.029 147.717 115.029H155.347C159.193 115.029 162.336 118.142 162.336 122.017" stroke="#66B0F0" stroke-width="6" stroke-miterlimit="10"/>
<path d="M148.083 175.997H133.403C129.649 175.997 126.597 172.945 126.597 169.192V154.515C126.597 150.761 129.649 147.71 133.403 147.71H148.083C151.837 147.71 154.889 150.761 154.889 154.515V169.192C154.859 172.945 151.837 175.997 148.083 175.997Z" fill="white" stroke="#66B0F0" stroke-width="6" stroke-miterlimit="10"/>
<path d="M144.268 171.145H137.096C134.013 171.145 131.48 168.643 131.48 165.53V158.36C131.48 155.278 133.983 152.745 137.096 152.745H144.268C147.351 152.745 149.884 155.247 149.884 158.36V165.53C149.884 168.643 147.381 171.145 144.268 171.145Z" fill="white" stroke="#66B0F0" stroke-width="6" stroke-miterlimit="10"/>
<path d="M147.106 153.477L134.349 170.443" stroke="#66B0F0" stroke-width="6" stroke-miterlimit="10"/>
<path d="M142.895 152.897L131.846 167.544" stroke="#66B0F0" stroke-width="6" stroke-miterlimit="10"/>
<path d="M149.579 156.498L138.53 171.145" stroke="#66B0F0" stroke-width="6" stroke-miterlimit="10"/>
<path d="M149.884 161.96L142.956 171.145" stroke="#66B0F0" stroke-width="6" stroke-miterlimit="10"/>
<path d="M138.408 152.897L131.511 162.021" stroke="#66B0F0" stroke-width="6" stroke-miterlimit="10"/>
<path d="M129.863 577.565V594.378C129.863 602.495 123.271 609.086 115.153 609.086H77.4298" stroke="#66B0F0" stroke-width="6" stroke-miterlimit="10"/>
<path d="M143.933 577.748V731.998" stroke="#66B0F0" stroke-width="6" stroke-miterlimit="10"/>
<path d="M290.704 580.098H69.1284C58.0192 580.098 49.0463 571.096 49.0463 560.019H295.953L290.704 580.098Z" fill="#FFC9AB"/>
<path d="M65.9544 613.267H98.7939C101.48 613.267 103.647 611.1 103.647 608.415V608.049C103.647 605.363 101.48 603.197 98.7939 603.197H65.9544C63.2686 603.197 61.1017 605.363 61.1017 608.049V608.415C61.1017 611.1 63.2686 613.267 65.9544 613.267Z" fill="#FFC9AB"/>
<path d="M49.0463 560.629H206.255L153.669 413.306C150.006 403.084 140.332 396.249 129.467 396.249H13.8873C2.41178 396.249 -5.58448 407.6 -1.73896 418.402L49.0463 560.629Z" stroke="#FFC9AB" stroke-width="6" stroke-miterlimit="10"/>
<path d="M56.829 560.629H193.497L142.682 418.189C139.141 408.302 129.802 401.711 119.303 401.711H2.28979" stroke="#FFC9AB" stroke-width="6" stroke-miterlimit="10"/>
</svg>
